<svg width="64" height="64" viewBox="0 0 64 64" fill="none" xmlns="http://www.w3.org/2000/svg">
<circle cx="32" cy="32" r="32" fill="url(#paint0_linear_3514_5281)"/>
<path fill-rule="evenodd" clip-rule="evenodd" d="M37.1347 19.3342C37.976 19.3342 38.816 19.4529 39.6147 19.7209C44.536 21.3209 46.3093 26.7209 44.828 31.4409C43.988 33.8529 42.6147 36.0542 40.816 37.8529C38.2413 40.3462 35.416 42.5595 32.3747 44.4662L32.0413 44.6675L31.6947 44.4529C28.6427 42.5595 25.8013 40.3462 23.2027 37.8395C21.416 36.0409 20.0413 33.8529 19.188 31.4409C17.6813 26.7209 19.4547 21.3209 24.4293 19.6929C24.816 19.5595 25.2147 19.4662 25.6147 19.4142H25.7747C26.1493 19.3595 26.5213 19.3342 26.8947 19.3342H27.0413C27.8813 19.3595 28.6947 19.5062 29.4827 19.7742H29.5613C29.6147 19.7995 29.6547 19.8275 29.6813 19.8529C29.976 19.9475 30.2547 20.0542 30.5213 20.2009L31.028 20.4275C31.1504 20.4928 31.2878 20.5926 31.4066 20.6788C31.4819 20.7335 31.5496 20.7827 31.6013 20.8142C31.6231 20.827 31.6452 20.8399 31.6675 20.853C31.7818 20.9197 31.9009 20.9892 32.0013 21.0662C33.4827 19.9342 35.2813 19.3209 37.1347 19.3342ZM40.6813 28.9342C41.228 28.9195 41.6947 28.4809 41.7347 27.9195V27.7609C41.7747 25.8929 40.6427 24.2009 38.9213 23.5475C38.3747 23.3595 37.7747 23.6542 37.5747 24.2142C37.388 24.7742 37.6813 25.3875 38.2413 25.5862C39.096 25.9062 39.668 26.7475 39.668 27.6795V27.7209C39.6427 28.0262 39.7347 28.3209 39.9213 28.5475C40.108 28.7742 40.388 28.9062 40.6813 28.9342Z" fill="white"/>
<defs>
<linearGradient id="paint0_linear_3514_5281" x1="0" y1="0" x2="57.3865" y2="96.0902" gradientUnits="userSpaceOnUse">
<stop stop-color="#9F3FBF"/>
<stop offset="1" stop-color="#BF3F7C"/>
</linearGradient>
</defs>
</svg>
