<svg width="125" height="38" viewBox="0 0 125 38" fill="none" xmlns="http://www.w3.org/2000/svg">
<rect width="26.6667" height="26.6667" rx="8" transform="matrix(1 0 0.363576 0.931564 1.9375 9.96826)" fill="#578FC4" fill-opacity="0.3"/>
<rect width="26.6667" height="26.6667" rx="8" transform="matrix(1 0 0.363576 0.931564 5.33203 5)" fill="url(#paint0_linear_3537_1424)"/>
<path d="M50.528 12H44.352V8.16H60.992V12H54.912V32H50.528V12ZM68.326 8.16H73.958L82.182 32H77.446L75.75 26.88H66.534L64.806 32H60.102L68.326 8.16ZM74.502 23.04L71.142 12.992L67.782 23.04H74.502ZM93.0973 32.384C91.2199 32.384 89.5879 32.032 88.2013 31.328C86.8359 30.624 85.7693 29.7387 85.0013 28.672C84.2333 27.584 83.7426 26.4533 83.5293 25.28L87.6253 24.192C87.9453 25.4933 88.5853 26.5067 89.5453 27.232C90.5053 27.9573 91.7106 28.32 93.1613 28.32C94.2706 28.32 95.1666 28.0427 95.8493 27.488C96.5533 26.9333 96.9053 26.272 96.9053 25.504C96.9053 24.8 96.6493 24.192 96.1373 23.68C95.6466 23.1467 94.9746 22.7947 94.1213 22.624L90.5373 21.92C88.6386 21.5573 87.1453 20.736 86.0573 19.456C84.9693 18.176 84.4253 16.6187 84.4253 14.784C84.4253 13.504 84.7879 12.3307 85.5133 11.264C86.2599 10.176 87.2413 9.32266 88.4573 8.704C89.6946 8.08533 91.0066 7.776 92.3933 7.776C94.1639 7.776 95.6679 8.07467 96.9053 8.672C98.1426 9.26933 99.1026 10.0267 99.7853 10.944C100.489 11.84 100.959 12.7893 101.193 13.792L97.1293 15.072C96.6813 13.92 96.0733 13.0987 95.3053 12.608C94.5373 12.096 93.5666 11.84 92.3933 11.84C91.7319 11.84 91.1346 11.9787 90.6013 12.256C90.0893 12.5333 89.6839 12.896 89.3853 13.344C89.1079 13.7707 88.9693 14.208 88.9693 14.656C88.9693 15.36 89.2039 15.9787 89.6733 16.512C90.1426 17.024 90.7933 17.3547 91.6253 17.504L95.0173 18.24C97.0866 18.688 98.6866 19.5413 99.8173 20.8C100.948 22.0373 101.513 23.52 101.513 25.248C101.513 26.4853 101.172 27.648 100.489 28.736C99.8066 29.824 98.8253 30.7093 97.5453 31.392C96.2866 32.0533 94.8039 32.384 93.0973 32.384ZM105.304 8.16H109.656V18.752L118.616 8.16H124.088L115.832 17.952L124.376 32H119.256L112.856 21.504L109.656 25.312V32H105.304V8.16Z" fill="white"/>
<defs>
<linearGradient id="paint0_linear_3537_1424" x1="0" y1="0" x2="27.54" y2="40.0626" gradientUnits="userSpaceOnUse">
<stop stop-color="#426CFF"/>
<stop offset="1" stop-color="#2AA8CF"/>
</linearGradient>
</defs>
</svg>
