<svg width="120" height="120" viewBox="0 0 120 120" fill="none" xmlns="http://www.w3.org/2000/svg">
<g clip-path="url(#clip0_3534_1420)">
<path fill-rule="evenodd" clip-rule="evenodd" d="M22.876 97.1255C22.1728 96.4223 21.7777 95.4684 21.7777 94.4739C21.7777 93.4793 22.1728 92.5255 22.876 91.8222L85.4178 29.2804L52.0442 29.2857C51.0484 29.2857 50.0933 28.8901 49.3892 28.186C48.685 27.4818 48.2894 26.5268 48.2894 25.531C48.2894 24.5351 48.685 23.5801 49.3892 22.876C50.0933 22.1718 51.0484 21.7762 52.0442 21.7762L94.4706 21.7762C94.9638 21.7756 95.4524 21.8723 95.9082 22.0608C96.364 22.2492 96.7782 22.5258 97.127 22.8746C97.4757 23.2234 97.7523 23.6375 97.9408 24.0934C98.1292 24.5492 98.2259 25.0377 98.2253 25.531V67.9574C98.2253 68.9532 97.8297 69.9082 97.1256 70.6124C96.4214 71.3165 95.4664 71.7121 94.4706 71.7121C93.4748 71.7121 92.5197 71.3165 91.8156 70.6124C91.1114 69.9082 90.7158 68.9532 90.7158 67.9574L90.7211 34.5837L28.1793 97.1255C27.4761 97.8288 26.5222 98.2239 25.5277 98.2239C24.5331 98.2239 23.5793 97.8288 22.876 97.1255V97.1255Z" fill="#0A0A0A"/>
</g>
<defs>
<clipPath id="clip0_3534_1420">
<rect width="120" height="120" fill="white"/>
</clipPath>
</defs>
</svg>
