<svg width="100" height="100" viewBox="0 0 100 100" fill="none" xmlns="http://www.w3.org/2000/svg">
<path d="M27.0827 41.667C26.1536 41.667 25.2619 41.8087 24.3744 41.9378C24.6619 40.9712 24.9577 39.9878 25.4327 39.1045C25.9077 37.8212 26.6494 36.7087 27.3869 35.5878C28.0036 34.3753 29.0911 33.5545 29.8911 32.517C30.7286 31.5087 31.8702 30.8378 32.7744 30.0003C33.6619 29.1253 34.8244 28.6878 35.7494 28.0712C36.7161 27.517 37.5577 26.9045 38.4577 26.6128L40.7036 25.6878L42.6785 24.867L40.6577 16.792L38.1702 17.392C37.3744 17.592 36.4036 17.8253 35.2994 18.1045C34.1702 18.3128 32.9661 18.8837 31.6244 19.4045C30.2994 19.9962 28.7661 20.3962 27.3411 21.3462C25.9077 22.2545 24.2536 23.0128 22.7952 24.2295C21.3827 25.4837 19.6786 26.5712 18.4202 28.167C17.0452 29.6587 15.6869 31.2253 14.6327 33.0087C13.4119 34.7087 12.5827 36.5753 11.7077 38.4212C10.9161 40.267 10.2786 42.1545 9.75772 43.9878C8.77022 47.6628 8.32855 51.1545 8.15772 54.142C8.01605 57.1337 8.09938 59.6212 8.27438 61.4212C8.33688 62.2712 8.45355 63.0962 8.53688 63.667L8.64105 64.367L8.74938 64.342C9.49047 67.8038 11.1965 70.985 13.6701 73.5177C16.1436 76.0505 19.2837 77.8311 22.727 78.6538C26.1704 79.4764 29.7762 79.3074 33.1275 78.1663C36.4788 77.0252 39.4386 74.9586 41.6644 72.2057C43.8903 69.4527 45.2912 66.1258 45.7053 62.6099C46.1193 59.094 45.5295 55.5326 44.0041 52.3379C42.4787 49.1432 40.08 46.4456 37.0854 44.5572C34.0909 42.6688 30.6229 41.6668 27.0827 41.667V41.667ZM72.916 41.667C71.9869 41.667 71.0952 41.8087 70.2077 41.9378C70.4952 40.9712 70.791 39.9878 71.266 39.1045C71.741 37.8212 72.4827 36.7087 73.2202 35.5878C73.8369 34.3753 74.9244 33.5545 75.7244 32.517C76.5619 31.5087 77.7035 30.8378 78.6077 30.0003C79.4952 29.1253 80.6577 28.6878 81.5827 28.0712C82.5494 27.517 83.391 26.9045 84.291 26.6128L86.5369 25.6878L88.5119 24.867L86.491 16.792L84.0035 17.392C83.2077 17.592 82.2369 17.8253 81.1327 18.1045C80.0035 18.3128 78.7994 18.8837 77.4577 19.4045C76.1369 20.0003 74.5994 20.3962 73.1744 21.3503C71.741 22.2587 70.0869 23.017 68.6286 24.2337C67.2161 25.4878 65.5119 26.5753 64.2535 28.167C62.8785 29.6587 61.5202 31.2253 60.466 33.0087C59.2452 34.7087 58.416 36.5753 57.541 38.4212C56.7494 40.267 56.1119 42.1545 55.591 43.9878C54.6035 47.6628 54.1619 51.1545 53.991 54.142C53.8494 57.1337 53.9327 59.6212 54.1077 61.4212C54.1702 62.2712 54.2869 63.0962 54.3702 63.667L54.4744 64.367L54.5827 64.342C55.3238 67.8038 57.0298 70.985 59.5034 73.5177C61.977 76.0505 65.1171 77.8311 68.5604 78.6538C72.0037 79.4764 75.6096 79.3074 78.9609 78.1663C82.3121 77.0252 85.2719 74.9586 87.4977 72.2057C89.7236 69.4527 91.1246 66.1258 91.5386 62.6099C91.9527 59.094 91.3629 55.5326 89.8374 52.3379C88.312 49.1432 85.9133 46.4456 82.9188 44.5572C79.9242 42.6688 76.4563 41.6668 72.916 41.667V41.667Z" fill="#426CFF"/>
</svg>
