<svg width="35" height="35" viewBox="0 0 35 35" fill="none" xmlns="http://www.w3.org/2000/svg">
<g clip-path="url(#clip0_3535_1422)">
<path fill-rule="evenodd" clip-rule="evenodd" d="M6.50793 27.6266C6.30789 27.4265 6.19551 27.1552 6.19551 26.8723C6.19551 26.5894 6.30789 26.3181 6.50793 26.1181L24.2976 8.32841L14.8046 8.32992C14.5214 8.32992 14.2497 8.2174 14.0494 8.0171C13.8492 7.81681 13.7366 7.54516 13.7366 7.2619C13.7366 6.97865 13.8492 6.707 14.0494 6.5067C14.2497 6.30641 14.5214 6.19389 14.8046 6.19389L26.8726 6.19389C27.0129 6.19371 27.1519 6.22122 27.2815 6.27483C27.4112 6.32844 27.529 6.4071 27.6282 6.50631C27.7274 6.60552 27.8061 6.72333 27.8597 6.85298C27.9133 6.98264 27.9408 7.1216 27.9406 7.2619L27.9406 19.3299C27.9406 19.6131 27.8281 19.8848 27.6278 20.0851C27.4275 20.2854 27.1559 20.3979 26.8726 20.3979C26.5893 20.3979 26.3177 20.2854 26.1174 20.0851C25.9171 19.8848 25.8046 19.6131 25.8046 19.3299L25.8061 9.8369L8.01642 27.6266C7.81638 27.8266 7.54507 27.939 7.26218 27.939C6.97928 27.939 6.70797 27.8266 6.50793 27.6266V27.6266Z" fill="white"/>
</g>
<defs>
<clipPath id="clip0_3535_1422">
<rect width="34.1333" height="34.1333" fill="white"/>
</clipPath>
</defs>
</svg>
