<svg width="64" height="64" viewBox="0 0 64 64" fill="none" xmlns="http://www.w3.org/2000/svg">
<circle cx="32" cy="32" r="32" fill="url(#paint0_linear_3514_5272)"/>
<path fill-rule="evenodd" clip-rule="evenodd" d="M34.9511 26.3499C34.9511 29.8749 32.0666 32.6998 28.4671 32.6998C24.8689 32.6998 21.983 29.8749 21.983 26.3499C21.983 22.8249 24.8689 20 28.4671 20C32.0666 20 34.9511 22.8249 34.9511 26.3499ZM18.668 39.8898C18.668 36.6267 23.182 35.8103 28.4671 35.8103C33.7809 35.8103 38.2662 36.6548 38.2662 39.9205C38.2662 43.1836 33.7522 44 28.4671 44C23.1533 44 18.668 43.1555 18.668 39.8898ZM37.5659 26.465C37.5659 28.2601 37.0153 29.9351 36.0499 31.3264C35.9494 31.4695 36.0381 31.6624 36.213 31.6931C36.4556 31.7327 36.7048 31.757 36.9592 31.7621C39.4902 31.8273 41.7616 30.2315 42.3891 27.8282C43.3193 24.2623 40.59 21.0606 37.1132 21.0606C36.7361 21.0606 36.3747 21.0989 36.0225 21.1692C35.9742 21.1794 35.922 21.2024 35.8959 21.2433C35.862 21.2957 35.8868 21.3634 35.9207 21.4081C36.9657 22.8429 37.5659 24.5894 37.5659 26.465ZM41.7577 34.2697C43.4589 34.5955 44.577 35.2586 45.0401 36.2258C45.4328 37.0179 45.4328 37.9378 45.0401 38.73C44.3317 40.2274 42.046 40.709 41.1575 40.833C40.9736 40.8585 40.8261 40.7052 40.8457 40.5238C41.2997 36.374 37.6898 34.4064 36.7557 33.9542C36.7165 33.9324 36.7074 33.9018 36.7113 33.8813C36.7139 33.8686 36.7309 33.8481 36.7609 33.8443C38.7818 33.8059 40.9553 34.0781 41.7577 34.2697Z" fill="white"/>
<defs>
<linearGradient id="paint0_linear_3514_5272" x1="0" y1="0" x2="83.4263" y2="120.674" gradientUnits="userSpaceOnUse">
<stop stop-color="#FF7549"/>
<stop offset="1" stop-color="#F4BD50"/>
</linearGradient>
</defs>
</svg>
