<svg width="130" height="130" viewBox="0 0 130 130" fill="none" xmlns="http://www.w3.org/2000/svg">
<circle cx="65" cy="65" r="65" fill="#426CFF"/>
<path d="M59.1453 116.079L53.7808 115.199L53.9933 113.904L57.8898 114.543L58.2545 112.319L54.8437 111.76L55.0561 110.465L58.4669 111.024L58.9962 107.797L60.4641 108.038L59.1453 116.079Z" fill="white"/>
<path d="M48.6119 113.762L45.8029 112.627C45.2824 112.416 44.8643 112.137 44.5487 111.789C44.2236 111.445 44.0267 111.047 43.9579 110.595C43.8797 110.146 43.9403 109.675 44.1398 109.182C44.3475 108.668 44.6482 108.274 45.0418 108.001C45.426 107.732 45.87 107.596 46.3737 107.596L45.8653 103.863L47.4269 104.494L47.9423 108.56L47.263 107.672L49.1594 108.438L50.2866 105.65L51.6657 106.207L48.6119 113.762ZM47.2173 109.069C46.974 108.971 46.7419 108.932 46.5211 108.953C46.2908 108.978 46.0894 109.058 45.917 109.192C45.7445 109.327 45.6118 109.509 45.5189 109.739C45.4233 109.976 45.392 110.199 45.4251 110.409C45.4554 110.626 45.5461 110.82 45.6972 110.991C45.8387 111.166 46.0312 111.303 46.2745 111.402L47.7246 111.988L48.6675 109.655L47.2173 109.069Z" fill="white"/>
<path d="M37.894 108.67L33.443 105.588L34.1903 104.509L37.4184 106.745L38.6078 105.027L35.5596 102.916L36.3069 101.837L39.3552 103.948L40.5633 102.204L37.3352 99.9679L38.0825 98.8889L42.5335 101.972L37.894 108.67Z" fill="white"/>
<path d="M29.4528 102.098L25.7393 98.1582L26.6945 97.2579L29.3877 100.115L30.908 98.6826L28.3648 95.9843L29.32 95.084L31.8632 97.7824L33.4074 96.327L30.7142 93.4694L31.6693 92.5692L35.3828 96.5093L29.4528 102.098Z" fill="white"/>
<path d="M20.2472 87.217L21.1499 89.1252L19.9635 89.6865L17.5311 84.5452L18.7176 83.9839L19.6063 85.8624L25.7858 82.9389L26.4266 84.2935L20.2472 87.217Z" fill="white"/>
<path d="M15.8048 79.651L15.1245 76.6985C14.9984 76.1514 14.9874 75.6488 15.0914 75.1909C15.1866 74.7274 15.3999 74.3378 15.7312 74.022C16.0538 73.7007 16.4744 73.4803 16.9932 73.3608C17.5332 73.2364 18.0281 73.257 18.4778 73.4228C18.9189 73.5831 19.2841 73.8693 19.5737 74.2815L22.3406 71.7246L22.7188 73.366L19.6829 76.1196L20.021 75.0539L20.4803 77.0471L23.4114 76.3717L23.7454 77.8213L15.8048 79.651ZM18.8501 75.8176C18.7911 75.5618 18.6898 75.3495 18.5461 75.1805C18.3937 75.0061 18.2128 74.8869 18.0035 74.8229C17.7942 74.7589 17.5688 74.7547 17.3272 74.8104C17.0785 74.8677 16.8776 74.9701 16.7245 75.1176C16.5643 75.2668 16.4574 75.4523 16.4038 75.6742C16.3414 75.8906 16.3397 76.1267 16.3986 76.3825L16.7498 77.9067L19.2013 77.3418L18.8501 75.8176Z" fill="white"/>
<path d="M13.8979 68.1945L13.8357 66.7083L21.9773 66.3676L22.0395 67.8539L13.8979 68.1945Z" fill="white"/>
<path d="M14.208 58.7695L14.4937 56.8658L22.9694 55.2954L22.7291 56.8963L20.9124 57.2098L20.4448 60.325L22.0878 61.1689L21.8491 62.7589L14.208 58.7695ZM19.5511 57.4368L15.3368 58.1758L15.3985 57.7647L19.2101 59.7083L19.5511 57.4368Z" fill="white"/>
<path d="M16.482 48.7512L17.0207 47.3646L23.3929 49.8403L24.6564 46.5879L25.8799 47.0633L24.0776 51.7022L16.482 48.7512Z" fill="white"/>
<path d="M23.7617 34.7981L27.1987 30.5865L28.2156 31.4164L25.7191 34.4755L27.4648 35.9001L29.6501 33.2223L30.667 34.0522L28.4816 36.73L31.0154 38.7978L30.0749 39.9503L23.7617 34.7981Z" fill="white"/>
<path d="M31.0193 26.8238L33.404 24.9549C33.8459 24.6085 34.2963 24.3853 34.7551 24.2851C35.2152 24.1747 35.6585 24.2024 36.085 24.3684C36.5128 24.5242 36.8909 24.8115 37.2193 25.2305C37.5611 25.6667 37.7524 26.1236 37.7932 26.6012C37.8352 27.0685 37.731 27.5207 37.4807 27.9578L40.9702 29.3782L39.6444 30.4172L35.8627 28.8368L36.9711 28.6907L35.3612 29.9524L37.2167 32.3199L36.0459 33.2375L31.0193 26.8238ZM35.7827 27.9545C35.9893 27.7926 36.1386 27.6107 36.2306 27.4089C36.3238 27.1969 36.355 26.9825 36.3241 26.7658C36.2933 26.5492 36.2014 26.3432 36.0484 26.1481C35.891 25.9472 35.713 25.8088 35.5145 25.7328C35.3114 25.651 35.0981 25.6329 34.8744 25.6785C34.652 25.7139 34.4375 25.8125 34.2308 25.9745L32.9998 26.9393L34.5516 28.9194L35.7827 27.9545Z" fill="white"/>
<path d="M40.7778 20.0683L45.6691 17.7467L46.2319 18.9324L42.6845 20.6162L43.5803 22.5035L46.9301 20.9135L47.4929 22.0993L44.1431 23.6892L45.053 25.6062L48.6004 23.9224L49.1632 25.1082L44.272 27.4298L40.7778 20.0683Z" fill="white"/>
<path d="M50.6847 16.0287L55.9515 14.7738L56.2557 16.0506L52.436 16.9607L52.9202 18.9929L56.5271 18.1336L56.8313 19.4104L53.2244 20.2697L53.7161 22.3339L57.5359 21.4238L57.8401 22.7006L52.5733 23.9555L50.6847 16.0287Z" fill="white"/>
<path d="M68.1726 15.468L66.0684 15.2993L66.1733 13.991L71.8428 14.4456L71.7378 15.7539L69.6663 15.5878L69.1199 22.4021L67.6262 22.2823L68.1726 15.468Z" fill="white"/>
<path d="M76.9467 15.3887L79.8452 16.2709C80.3823 16.4343 80.8235 16.6753 81.1686 16.9938C81.5229 17.3074 81.7543 17.6865 81.8629 18.1312C81.9806 18.571 81.9619 19.0455 81.8069 19.5547C81.6456 20.0849 81.3809 20.5036 81.013 20.8109C80.6542 21.1132 80.224 21.2872 79.7223 21.3327L80.5594 25.006L78.948 24.5155L78.0745 20.511L78.8297 21.3354L76.8729 20.7399L75.9972 23.6175L74.5741 23.1844L76.9467 15.3887ZM78.7515 19.9396C79.0026 20.016 79.2372 20.0341 79.4553 19.9938C79.6824 19.9486 79.876 19.8512 80.0358 19.7017C80.1956 19.5521 80.3116 19.3588 80.3838 19.1216C80.4581 18.8774 80.4695 18.6522 80.418 18.446C80.3685 18.2328 80.261 18.0476 80.0954 17.8905C79.9389 17.7285 79.7351 17.6093 79.4839 17.5329L77.9876 17.0775L77.2551 19.4842L78.7515 19.9396Z" fill="white"/>
<path d="M87.8269 19.4459L89.1463 20.133L85.3827 27.3605L84.0633 26.6734L87.8269 19.4459Z" fill="white"/>
<path d="M95.8437 24.4156L97.3515 25.6124L94.4874 33.7425L93.2194 32.7361L93.8533 31.005L91.386 29.0466L89.8354 30.0502L88.576 29.0506L95.8437 24.4156ZM94.3352 29.7117L95.7956 25.6901L96.1212 25.9485L92.5361 28.2837L94.3352 29.7117Z" fill="white"/>
<path d="M103.391 31.3818L104.325 32.5401L99.0018 36.8297L101.191 39.5464L100.169 40.37L97.0464 36.495L103.391 31.3818Z" fill="white"/>
<path d="M111.863 44.6456L113.8 49.7247L112.574 50.1925L111.167 46.5032L109.061 47.3063L110.293 50.5357L109.067 51.0035L107.835 47.7741L104.779 48.9396L104.249 47.5498L111.863 44.6456Z" fill="white"/>
<path d="M115.157 54.9139L115.588 57.9128C115.668 58.4686 115.637 58.9703 115.495 59.418C115.362 59.8719 115.117 60.2423 114.76 60.5293C114.412 60.8225 113.974 61.007 113.447 61.0828C112.899 61.1617 112.407 61.0997 111.973 60.897C111.547 60.7004 111.207 60.3847 110.953 59.9497L107.982 62.2666L107.742 60.5993L110.997 58.1089L110.571 59.1426L110.28 57.1181L107.303 57.5462L107.091 56.0738L115.157 54.9139ZM111.802 58.4794C111.84 58.7393 111.923 58.9593 112.052 59.1397C112.189 59.3262 112.359 59.4601 112.563 59.5414C112.766 59.6227 112.99 59.6457 113.236 59.6104C113.488 59.574 113.697 59.4888 113.862 59.3546C114.034 59.2193 114.156 59.0434 114.228 58.8267C114.308 58.6163 114.33 58.3812 114.292 58.1213L114.07 56.5731L111.58 56.9312L111.802 58.4794Z" fill="white"/>
<path d="M116.146 66.7414L115.72 72.1389L114.412 72.0356L114.721 68.1211L112.638 67.9568L112.347 71.6532L111.038 71.55L111.33 67.8535L109.214 67.6866L108.905 71.6011L107.597 71.4979L108.023 66.1004L116.146 66.7414Z" fill="white"/>
<path d="M114.71 77.3412L113.172 82.5324L111.914 82.1595L113.029 78.3946L111.026 77.8012L109.973 81.3564L108.715 80.9835L109.768 77.4283L107.733 76.8256L106.618 80.5905L105.359 80.2177L106.897 75.0265L114.71 77.3412Z" fill="white"/>
<path d="M106.476 92.7808L107.672 91.0408L108.754 91.784L105.533 96.4721L104.451 95.7289L105.628 94.0159L99.9932 90.1451L100.842 88.91L106.476 92.7808Z" fill="white"/>
<path d="M102.17 100.426L99.9605 102.499C99.551 102.883 99.1221 103.145 98.674 103.286C98.2255 103.436 97.7815 103.448 97.3419 103.321C96.902 103.203 96.5 102.951 96.1358 102.562C95.7566 102.158 95.5256 101.72 95.4427 101.248C95.3594 100.786 95.4231 100.326 95.6338 99.8689L92.0322 98.7633L93.2607 97.6109L97.1675 98.85L96.0764 99.0937L97.5682 97.6944L95.5103 95.5006L96.5952 94.4829L102.17 100.426ZM97.3254 99.7218C97.1339 99.9014 97.0013 100.096 96.9276 100.305C96.8535 100.524 96.8414 100.741 96.8914 100.954C96.9413 101.167 97.0511 101.364 97.2207 101.545C97.3953 101.731 97.5849 101.853 97.7894 101.911C97.9988 101.974 98.213 101.974 98.4317 101.908C98.6501 101.853 98.8551 101.736 99.0465 101.557L100.187 100.486L98.4662 98.6517L97.3254 99.7218Z" fill="white"/>
<path d="M93.2304 107.837L91.9771 108.638L87.588 101.773L88.8414 100.972L93.2304 107.837Z" fill="white"/>
<path d="M84.9264 112.307L83.1373 113.018L77.5174 106.482L79.0219 105.884L80.2065 107.297L83.1343 106.134L83.0373 104.29L84.5317 103.696L84.9264 112.307ZM81.0874 108.359L83.8455 111.63L83.4592 111.784L83.2222 107.512L81.0874 108.359Z" fill="white"/>
<path d="M75.1217 115.379L73.6523 115.611L72.5874 108.858L69.1408 109.402L68.9364 108.105L73.8523 107.33L75.1217 115.379Z" fill="white"/>
<path d="M52.779 73.1309C51.4434 73.1309 50.1735 72.8791 48.9693 72.3756C47.7651 71.872 46.747 71.1713 45.915 70.2737C45.083 69.3541 44.5137 68.2812 44.2072 67.0551L48.1154 65.6758C48.4876 66.7924 49.0788 67.6463 49.8889 68.2374C50.7209 68.8067 51.6843 69.0913 52.779 69.0913C53.6329 69.0913 54.3883 68.9271 55.0451 68.5987C55.7019 68.2703 56.2165 67.7996 56.5887 67.1865C56.9609 66.5516 57.147 65.8071 57.147 64.9532C57.147 63.7052 56.7419 62.72 55.9318 61.9974C55.1436 61.253 54.0817 60.8808 52.7461 60.8808C51.8485 60.8808 51.0165 61.056 50.2501 61.4063L49.232 59.2716L55.5706 52.0463H45.5866V48.2694H60.5954V51.7836L54.224 59.2387L54.2897 57.5638C55.7348 57.5857 57.0047 57.9031 58.0994 58.5162C59.216 59.1292 60.0809 59.9831 60.6939 61.0779C61.307 62.1507 61.6135 63.3987 61.6135 64.8219C61.6135 66.3764 61.2304 67.7886 60.464 69.0585C59.7196 70.3284 58.6687 71.3246 57.3112 72.0471C55.9537 72.7697 54.443 73.1309 52.779 73.1309ZM74.2028 73.1309C72.298 73.1309 70.6011 72.6054 69.1123 71.5545C67.6234 70.5036 66.463 69.0257 65.631 67.1208C64.8209 65.1941 64.4159 62.9827 64.4159 60.4867C64.4159 57.9907 64.8209 55.7903 65.631 53.8854C66.4411 51.9806 67.5906 50.5027 69.0794 49.4518C70.5683 48.4008 72.2651 47.8753 74.17 47.8753C76.1405 47.8753 77.8592 48.4008 79.3262 49.4518C80.815 50.5027 81.9645 51.9806 82.7746 53.8854C83.6066 55.7903 84.0226 57.9907 84.0226 60.4867C84.0226 62.9827 83.6066 65.1941 82.7746 67.1208C81.9645 69.0257 80.815 70.5036 79.3262 71.5545C77.8592 72.6054 76.1514 73.1309 74.2028 73.1309ZM74.2028 69.0585C75.3194 69.0585 76.2719 68.7191 77.0601 68.0404C77.8702 67.3398 78.4832 66.3545 78.8992 65.0846C79.3371 63.7928 79.5561 62.2602 79.5561 60.4867C79.5561 58.7351 79.3371 57.2134 78.8992 55.9217C78.4832 54.6299 77.8702 53.6446 77.0601 52.9659C76.2719 52.2871 75.3085 51.9478 74.17 51.9478C73.0752 51.9478 72.1338 52.2871 71.3456 52.9659C70.5573 53.6446 69.9443 54.6299 69.5064 55.9217C69.0904 57.1916 68.8824 58.7132 68.8824 60.4867C68.8824 62.2383 69.0904 63.76 69.5064 65.0518C69.9443 66.3217 70.5573 67.3069 71.3456 68.0076C72.1557 68.7082 73.1081 69.0585 74.2028 69.0585Z" fill="white"/>
<path d="M53.1196 76.8442H55.8017C56.6045 76.8442 57.3052 77.0121 57.9036 77.3478C58.5094 77.6762 58.9765 78.1506 59.3049 78.7709C59.6333 79.384 59.7975 80.0992 59.7975 80.9166C59.7975 81.734 59.6333 82.4529 59.3049 83.0733C58.9765 83.6863 58.5094 84.1607 57.9036 84.4964C57.2979 84.8321 56.5972 85 55.8017 85H53.1196V76.8442ZM55.8017 84.1789C56.4221 84.1789 56.9621 84.0476 57.4219 83.7848C57.889 83.5148 58.2466 83.1353 58.4948 82.6463C58.7502 82.1573 58.8779 81.5808 58.8779 80.9166C58.8779 80.2598 58.7502 79.6869 58.4948 79.1979C58.2466 78.7089 57.889 78.3331 57.4219 78.0703C56.9548 77.8003 56.4148 77.6653 55.8017 77.6653H53.9954V84.1789H55.8017ZM62.3883 85.1314C62.0234 85.1314 61.6913 85.062 61.3921 84.9234C61.1001 84.7774 60.8702 84.5804 60.7024 84.3322C60.5345 84.0768 60.4506 83.7921 60.4506 83.4783C60.4506 83.0039 60.6039 82.6025 60.9104 82.2741C61.2242 81.9457 61.6949 81.7304 62.3226 81.6282L64.6215 81.2451V81.9895L62.5196 82.3398C62.1109 82.4055 61.8081 82.5368 61.611 82.7339C61.4213 82.9236 61.3264 83.1608 61.3264 83.4455C61.3264 83.7082 61.4322 83.9308 61.6439 84.1133C61.8555 84.2957 62.1219 84.3869 62.443 84.3869C62.8298 84.3869 63.1765 84.303 63.483 84.1352C63.7895 83.9673 64.0267 83.7374 64.1946 83.4455C64.3625 83.1462 64.4464 82.8178 64.4464 82.4602V80.9714C64.4464 80.6211 64.3187 80.3364 64.0632 80.1175C63.8078 79.8985 63.4757 79.7891 63.067 79.7891C62.7167 79.7891 62.4065 79.8766 62.1365 80.0518C61.8665 80.2269 61.6621 80.4605 61.5234 80.7524L60.779 80.3474C60.9469 79.9679 61.2461 79.6504 61.6767 79.3949C62.1146 79.1322 62.578 79.0008 63.067 79.0008C63.4903 79.0008 63.8698 79.0848 64.2055 79.2526C64.5413 79.4205 64.8003 79.654 64.9828 79.9533C65.1726 80.2525 65.2674 80.5919 65.2674 80.9714V85H64.4464V83.8286L64.5668 83.9491C64.4062 84.2921 64.1253 84.5767 63.7239 84.8029C63.3298 85.0219 62.8846 85.1314 62.3883 85.1314ZM68.5217 84.6278L68.4998 85.3503L66.0148 79.1213H66.9015L68.9377 84.2665H68.7078L70.7331 79.1213H71.6417L68.3684 87.1895H67.4489L68.5217 84.6278ZM74.4785 85.1314C73.9166 85.1387 73.4203 85.0036 72.9897 84.7263C72.5591 84.449 72.2453 84.0695 72.0482 83.5878L72.7379 83.2375C72.9131 83.6024 73.1539 83.887 73.4604 84.0914C73.767 84.2957 74.1027 84.3942 74.4676 84.3869C74.8252 84.3796 75.1208 84.2884 75.3543 84.1133C75.5879 83.9381 75.701 83.7119 75.6937 83.4345C75.6864 83.1645 75.5733 82.9492 75.3543 82.7886C75.1354 82.6208 74.9164 82.5259 74.6975 82.504L73.8545 82.4055C73.3291 82.2668 72.9386 82.0515 72.6832 81.7596C72.4277 81.4604 72.2964 81.1173 72.2891 80.7305C72.2818 80.3948 72.362 80.0992 72.5299 79.8438C72.6978 79.5811 72.9313 79.3767 73.2305 79.2307C73.5298 79.0848 73.8618 79.0081 74.2267 79.0008C74.723 78.9862 75.1755 79.1103 75.5842 79.3731C75.9929 79.6285 76.2849 79.9788 76.46 80.424L75.7703 80.7743C75.6171 80.4459 75.4018 80.1905 75.1244 80.008C74.8471 79.8255 74.5406 79.738 74.2049 79.7453C73.8837 79.7526 73.6246 79.8401 73.4276 80.008C73.2305 80.1759 73.1357 80.3912 73.143 80.6539C73.1503 80.9239 73.2488 81.1392 73.4385 81.2998C73.6283 81.4531 73.8217 81.5406 74.0187 81.5625L74.9931 81.672C75.4674 81.8034 75.8397 82.026 76.1097 82.3398C76.387 82.6536 76.5293 83.0112 76.5366 83.4126C76.5439 83.7338 76.46 84.0257 76.2849 84.2884C76.117 84.5439 75.8725 84.7482 75.5514 84.9015C75.2376 85.0474 74.8799 85.1241 74.4785 85.1314Z" fill="white"/>
</svg>
