<svg width="64" height="64" viewBox="0 0 64 64" fill="none" xmlns="http://www.w3.org/2000/svg">
<circle cx="32" cy="32" r="32" fill="url(#paint0_linear_3514_5288)"/>
<path d="M39.8931 35.093C39.5478 35.4277 39.3891 35.9117 39.4678 36.3863L40.6531 42.9463C40.7531 43.5023 40.5185 44.065 40.0531 44.3863C39.5971 44.7197 38.9905 44.7597 38.4931 44.493L32.5878 41.413C32.3825 41.3037 32.1545 41.245 31.9211 41.2383H31.5598C31.4345 41.257 31.3118 41.297 31.1998 41.3583L25.2931 44.453C25.0011 44.5997 24.6705 44.6517 24.3465 44.5997C23.5571 44.4503 23.0305 43.6983 23.1598 42.905L24.3465 36.345C24.4251 35.8663 24.2665 35.3797 23.9211 35.0397L19.1065 30.373C18.7038 29.9823 18.5638 29.3957 18.7478 28.8663C18.9265 28.3383 19.3825 27.953 19.9331 27.8663L26.5598 26.905C27.0638 26.853 27.5065 26.5463 27.7331 26.093L30.6531 20.1063C30.7225 19.973 30.8118 19.8503 30.9198 19.7463L31.0398 19.653C31.1025 19.5837 31.1745 19.5263 31.2545 19.4797L31.3998 19.4263L31.6265 19.333H32.1878C32.6891 19.385 33.1305 19.685 33.3611 20.133L36.3198 26.093C36.5331 26.529 36.9478 26.8317 37.4265 26.905L44.0531 27.8663C44.6131 27.9463 45.0811 28.333 45.2665 28.8663C45.4411 29.401 45.2905 29.9877 44.8798 30.373L39.8931 35.093Z" fill="white"/>
<defs>
<linearGradient id="paint0_linear_3514_5288" x1="0" y1="0" x2="66.0959" y2="96.1502" gradientUnits="userSpaceOnUse">
<stop stop-color="#51459D"/>
<stop offset="1" stop-color="#2AA8CF"/>
</linearGradient>
</defs>
</svg>
