<svg width="284" height="284" viewBox="0 0 284 284" fill="none" xmlns="http://www.w3.org/2000/svg">
<path d="M76.9157 118.333C74.2769 118.333 71.7445 118.736 69.224 119.103C70.0405 116.357 70.8807 113.565 72.2297 111.056C73.5787 107.411 75.685 104.252 77.7795 101.069C79.5309 97.6251 82.6194 95.294 84.8914 92.3475C87.2699 89.4838 90.5122 87.5786 93.08 85.2001C95.6005 82.7151 98.902 81.4726 101.529 79.7213C104.274 78.1475 106.665 76.408 109.221 75.5796L115.599 72.9526L121.208 70.6215L115.469 47.6885L108.404 49.3925C106.144 49.9605 103.387 50.6231 100.251 51.416C97.0442 52.0076 93.6244 53.6288 89.814 55.108C86.051 56.7883 81.6964 57.9243 77.6494 60.6223C73.5787 63.202 68.8809 65.3556 64.7392 68.811C60.7277 72.3728 55.8879 75.4613 52.3142 79.9935C48.4092 84.2298 44.5515 88.6791 41.5577 93.7438C38.0905 98.5718 35.7357 103.873 33.2507 109.115C31.0024 114.357 29.1919 119.718 27.7127 124.925C24.9082 135.362 23.6539 145.278 23.1687 153.762C22.7664 162.259 23.003 169.323 23.5 174.435C23.6775 176.849 24.0089 179.192 24.2455 180.813L24.5414 182.801L24.849 182.73C26.9537 192.562 31.7988 201.597 38.8238 208.79C45.8487 215.983 54.7666 221.04 64.5456 223.376C74.3246 225.712 84.5653 225.232 94.083 221.992C103.601 218.751 112.006 212.882 118.328 205.063C124.649 197.245 128.628 187.797 129.804 177.811C130.98 167.826 129.305 157.712 124.972 148.639C120.64 139.566 113.828 131.905 105.323 126.542C96.819 121.179 86.97 118.333 76.9157 118.333V118.333ZM207.082 118.333C204.444 118.333 201.911 118.736 199.391 119.103C200.207 116.357 201.047 113.565 202.396 111.056C203.745 107.411 205.852 104.252 207.946 101.069C209.698 97.6251 212.786 95.294 215.058 92.3475C217.437 89.4838 220.679 87.5786 223.247 85.2001C225.767 82.7151 229.069 81.4726 231.696 79.7213C234.441 78.1475 236.831 76.408 239.387 75.5796L245.766 72.9526L251.375 70.6215L245.635 47.6885L238.571 49.3925C236.311 49.9605 233.554 50.6231 230.418 51.416C227.211 52.0076 223.791 53.6288 219.981 55.108C216.23 56.8001 211.863 57.9243 207.816 60.6341C203.745 63.2138 199.048 65.3675 194.906 68.8228C190.894 72.3846 186.055 75.4731 182.481 79.9935C178.576 84.2298 174.718 88.6791 171.724 93.7438C168.257 98.5718 165.902 103.873 163.417 109.115C161.169 114.357 159.359 119.718 157.879 124.925C155.075 135.362 153.821 145.278 153.335 153.762C152.933 162.259 153.17 169.323 153.667 174.435C153.844 176.849 154.176 179.192 154.412 180.813L154.708 182.801L155.016 182.73C157.12 192.562 161.965 201.597 168.99 208.79C176.015 215.983 184.933 221.04 194.712 223.376C204.491 225.712 214.732 225.232 224.25 221.992C233.767 218.751 242.173 212.882 248.494 205.063C254.816 197.245 258.795 187.797 259.97 177.811C261.146 167.826 259.471 157.712 255.139 148.639C250.807 139.566 243.995 131.905 235.49 126.542C226.986 121.179 217.137 118.333 207.082 118.333V118.333Z" fill="white" fill-opacity="0.04"/>
<path d="M161.083 196.667C160.154 196.667 159.262 196.809 158.374 196.938C158.662 195.971 158.958 194.988 159.433 194.104C159.908 192.821 160.649 191.709 161.387 190.588C162.004 189.375 163.091 188.554 163.891 187.517C164.729 186.509 165.87 185.838 166.774 185C167.662 184.125 168.824 183.688 169.749 183.071C170.716 182.517 171.558 181.904 172.458 181.613L174.704 180.688L176.679 179.867L174.658 171.792L172.17 172.392C171.374 172.592 170.404 172.825 169.299 173.104C168.17 173.313 166.966 173.884 165.624 174.404C164.299 174.996 162.766 175.396 161.341 176.346C159.908 177.254 158.254 178.013 156.795 179.229C155.383 180.484 153.679 181.571 152.42 183.167C151.045 184.659 149.687 186.225 148.633 188.009C147.412 189.709 146.583 191.575 145.708 193.421C144.916 195.267 144.279 197.154 143.758 198.988C142.77 202.663 142.329 206.154 142.158 209.142C142.016 212.134 142.099 214.621 142.274 216.421C142.337 217.271 142.454 218.096 142.537 218.667L142.641 219.367L142.749 219.342C143.49 222.804 145.196 225.985 147.67 228.518C150.144 231.05 153.284 232.831 156.727 233.654C160.17 234.476 163.776 234.307 167.128 233.166C170.479 232.025 173.439 229.959 175.664 227.206C177.89 224.453 179.291 221.126 179.705 217.61C180.119 214.094 179.53 210.533 178.004 207.338C176.479 204.143 174.08 201.446 171.085 199.557C168.091 197.669 164.623 196.667 161.083 196.667V196.667ZM206.916 196.667C205.987 196.667 205.095 196.809 204.208 196.938C204.495 195.971 204.791 194.988 205.266 194.104C205.741 192.821 206.483 191.709 207.22 190.588C207.837 189.375 208.924 188.554 209.724 187.517C210.562 186.509 211.704 185.838 212.608 185C213.495 184.125 214.658 183.688 215.583 183.071C216.549 182.517 217.391 181.904 218.291 181.613L220.537 180.688L222.512 179.867L220.491 171.792L218.004 172.392C217.208 172.592 216.237 172.825 215.133 173.104C214.004 173.313 212.799 173.884 211.458 174.404C210.137 175 208.599 175.396 207.174 176.35C205.741 177.259 204.087 178.017 202.629 179.234C201.216 180.488 199.512 181.575 198.254 183.167C196.879 184.659 195.52 186.225 194.466 188.009C193.245 189.709 192.416 191.575 191.541 193.421C190.749 195.267 190.112 197.154 189.591 198.988C188.604 202.663 188.162 206.154 187.991 209.142C187.849 212.134 187.933 214.621 188.108 216.421C188.17 217.271 188.287 218.096 188.37 218.667L188.474 219.367L188.583 219.342C189.324 222.804 191.03 225.985 193.503 228.518C195.977 231.05 199.117 232.831 202.56 233.654C206.004 234.476 209.61 234.307 212.961 233.166C216.312 232.025 219.272 229.959 221.498 227.206C223.724 224.453 225.125 221.126 225.539 217.61C225.953 214.094 225.363 210.533 223.837 207.338C222.312 204.143 219.913 201.446 216.919 199.557C213.924 197.669 210.456 196.667 206.916 196.667V196.667Z" fill="#426CFF"/>
</svg>
